<svg width="23.999999999999996" height="23.999999999999996" xmlns="http://www.w3.org/2000/svg">

 <g>
  <title>background</title>
  <rect fill="none" id="canvas_background" height="402" width="582" y="-1" x="-1"/>
 </g>
 <g>
  <title>Layer 1</title>
  <path id="svg_1" d="m0,0l24,0l0,24l-24,0l0,-24z" fill="none"/>
  <path id="svg_2" d="m19,3l-14,0c-1.11,0 -2,0.9 -2,2l0,14c0,1.1 0.89,2 2,2l14,0c1.1,0 2,-0.9 2,-2l0,-14c0,-1.1 -0.9,-2 -2,-2zm-8,12l-1.5,0l0,-2l-2,0l0,2l-1.5,0l0,-6l1.5,0l0,2.5l2,0l0,-2.5l1.5,0l0,6zm2,-6l4,0c0.55,0 1,0.45 1,1l0,4c0,0.55 -0.45,1 -1,1l-4,0l0,-6zm1.5,4.5l2,0l0,-3l-2,0l0,3z"/>
 </g>
</svg>